<mxfile host="app.diagrams.net" agent="Mozilla/5.0 (Macintosh; Intel Mac OS X 10_15_7) AppleWebKit/537.36 (KHTML, like Gecko) Chrome/128.0.0.0 Safari/537.36" version="24.7.12">
  <diagram name="Page-1" id="ocNDGLhU9f1mYKNa9Q7A">
    <mxGraphModel dx="2417" dy="2234" grid="1" gridSize="10" guides="1" tooltips="1" connect="1" arrows="1" fold="1" page="1" pageScale="1" pageWidth="827" pageHeight="1169" math="0" shadow="0">
      <root>
        <mxCell id="0" />
        <mxCell id="1" parent="0" />
        <mxCell id="EWPbMncWUsnWf-gfcvP8-1" value="ElevatorCar" style="swimlane;fontStyle=1;align=center;verticalAlign=top;childLayout=stackLayout;horizontal=1;startSize=26;horizontalStack=0;resizeParent=1;resizeParentMax=0;resizeLast=0;collapsible=1;marginBottom=0;whiteSpace=wrap;html=1;" vertex="1" parent="1">
          <mxGeometry x="630" y="290" width="180" height="154" as="geometry" />
        </mxCell>
        <mxCell id="EWPbMncWUsnWf-gfcvP8-2" value="&lt;div&gt;int id;&lt;/div&gt;Display obj;&lt;div&gt;int floor;&lt;/div&gt;&lt;div&gt;InternalButton obj;&lt;/div&gt;&lt;div&gt;Direction enum1;&lt;/div&gt;&lt;div&gt;Status enum2;&lt;/div&gt;&lt;div&gt;&lt;br&gt;&lt;/div&gt;" style="text;strokeColor=none;fillColor=none;align=left;verticalAlign=top;spacingLeft=4;spacingRight=4;overflow=hidden;rotatable=0;points=[[0,0.5],[1,0.5]];portConstraint=eastwest;whiteSpace=wrap;html=1;" vertex="1" parent="EWPbMncWUsnWf-gfcvP8-1">
          <mxGeometry y="26" width="180" height="94" as="geometry" />
        </mxCell>
        <mxCell id="EWPbMncWUsnWf-gfcvP8-3" value="" style="line;strokeWidth=1;fillColor=none;align=left;verticalAlign=middle;spacingTop=-1;spacingLeft=3;spacingRight=3;rotatable=0;labelPosition=right;points=[];portConstraint=eastwest;strokeColor=inherit;" vertex="1" parent="EWPbMncWUsnWf-gfcvP8-1">
          <mxGeometry y="120" width="180" height="8" as="geometry" />
        </mxCell>
        <mxCell id="EWPbMncWUsnWf-gfcvP8-4" value="def moveElavoter(floor_id,dir);" style="text;strokeColor=none;fillColor=none;align=left;verticalAlign=top;spacingLeft=4;spacingRight=4;overflow=hidden;rotatable=0;points=[[0,0.5],[1,0.5]];portConstraint=eastwest;whiteSpace=wrap;html=1;" vertex="1" parent="EWPbMncWUsnWf-gfcvP8-1">
          <mxGeometry y="128" width="180" height="26" as="geometry" />
        </mxCell>
        <mxCell id="EWPbMncWUsnWf-gfcvP8-5" value="DirectionEnum" style="swimlane;fontStyle=0;childLayout=stackLayout;horizontal=1;startSize=26;fillColor=none;horizontalStack=0;resizeParent=1;resizeParentMax=0;resizeLast=0;collapsible=1;marginBottom=0;whiteSpace=wrap;html=1;" vertex="1" parent="1">
          <mxGeometry x="827" y="160" width="140" height="78" as="geometry" />
        </mxCell>
        <mxCell id="EWPbMncWUsnWf-gfcvP8-6" value="UP," style="text;strokeColor=none;fillColor=none;align=left;verticalAlign=top;spacingLeft=4;spacingRight=4;overflow=hidden;rotatable=0;points=[[0,0.5],[1,0.5]];portConstraint=eastwest;whiteSpace=wrap;html=1;" vertex="1" parent="EWPbMncWUsnWf-gfcvP8-5">
          <mxGeometry y="26" width="140" height="26" as="geometry" />
        </mxCell>
        <mxCell id="EWPbMncWUsnWf-gfcvP8-7" value="Down" style="text;strokeColor=none;fillColor=none;align=left;verticalAlign=top;spacingLeft=4;spacingRight=4;overflow=hidden;rotatable=0;points=[[0,0.5],[1,0.5]];portConstraint=eastwest;whiteSpace=wrap;html=1;" vertex="1" parent="EWPbMncWUsnWf-gfcvP8-5">
          <mxGeometry y="52" width="140" height="26" as="geometry" />
        </mxCell>
        <mxCell id="EWPbMncWUsnWf-gfcvP8-9" value="StatusEnum" style="swimlane;fontStyle=0;childLayout=stackLayout;horizontal=1;startSize=26;fillColor=none;horizontalStack=0;resizeParent=1;resizeParentMax=0;resizeLast=0;collapsible=1;marginBottom=0;whiteSpace=wrap;html=1;" vertex="1" parent="1">
          <mxGeometry x="827" y="290" width="140" height="78" as="geometry" />
        </mxCell>
        <mxCell id="EWPbMncWUsnWf-gfcvP8-10" value="moving," style="text;strokeColor=none;fillColor=none;align=left;verticalAlign=top;spacingLeft=4;spacingRight=4;overflow=hidden;rotatable=0;points=[[0,0.5],[1,0.5]];portConstraint=eastwest;whiteSpace=wrap;html=1;" vertex="1" parent="EWPbMncWUsnWf-gfcvP8-9">
          <mxGeometry y="26" width="140" height="26" as="geometry" />
        </mxCell>
        <mxCell id="EWPbMncWUsnWf-gfcvP8-11" value="idle" style="text;strokeColor=none;fillColor=none;align=left;verticalAlign=top;spacingLeft=4;spacingRight=4;overflow=hidden;rotatable=0;points=[[0,0.5],[1,0.5]];portConstraint=eastwest;whiteSpace=wrap;html=1;" vertex="1" parent="EWPbMncWUsnWf-gfcvP8-9">
          <mxGeometry y="52" width="140" height="26" as="geometry" />
        </mxCell>
        <mxCell id="EWPbMncWUsnWf-gfcvP8-13" value="Display" style="swimlane;fontStyle=1;align=center;verticalAlign=top;childLayout=stackLayout;horizontal=1;startSize=26;horizontalStack=0;resizeParent=1;resizeParentMax=0;resizeLast=0;collapsible=1;marginBottom=0;whiteSpace=wrap;html=1;" vertex="1" parent="1">
          <mxGeometry x="630" y="122" width="160" height="86" as="geometry" />
        </mxCell>
        <mxCell id="EWPbMncWUsnWf-gfcvP8-14" value="int floor_id;" style="text;strokeColor=none;fillColor=none;align=left;verticalAlign=top;spacingLeft=4;spacingRight=4;overflow=hidden;rotatable=0;points=[[0,0.5],[1,0.5]];portConstraint=eastwest;whiteSpace=wrap;html=1;" vertex="1" parent="EWPbMncWUsnWf-gfcvP8-13">
          <mxGeometry y="26" width="160" height="26" as="geometry" />
        </mxCell>
        <mxCell id="EWPbMncWUsnWf-gfcvP8-15" value="" style="line;strokeWidth=1;fillColor=none;align=left;verticalAlign=middle;spacingTop=-1;spacingLeft=3;spacingRight=3;rotatable=0;labelPosition=right;points=[];portConstraint=eastwest;strokeColor=inherit;" vertex="1" parent="EWPbMncWUsnWf-gfcvP8-13">
          <mxGeometry y="52" width="160" height="8" as="geometry" />
        </mxCell>
        <mxCell id="EWPbMncWUsnWf-gfcvP8-16" value="Direction dir;" style="text;strokeColor=none;fillColor=none;align=left;verticalAlign=top;spacingLeft=4;spacingRight=4;overflow=hidden;rotatable=0;points=[[0,0.5],[1,0.5]];portConstraint=eastwest;whiteSpace=wrap;html=1;" vertex="1" parent="EWPbMncWUsnWf-gfcvP8-13">
          <mxGeometry y="60" width="160" height="26" as="geometry" />
        </mxCell>
        <mxCell id="EWPbMncWUsnWf-gfcvP8-17" value="name" style="endArrow=block;endFill=1;html=1;edgeStyle=orthogonalEdgeStyle;align=left;verticalAlign=top;rounded=0;entryX=0.556;entryY=0.962;entryDx=0;entryDy=0;entryPerimeter=0;" edge="1" parent="1" target="EWPbMncWUsnWf-gfcvP8-16">
          <mxGeometry x="-0.4464" y="11" relative="1" as="geometry">
            <mxPoint x="680" y="280" as="sourcePoint" />
            <mxPoint x="840" y="280" as="targetPoint" />
            <Array as="points">
              <mxPoint x="680" y="290" />
              <mxPoint x="681" y="290" />
              <mxPoint x="681" y="244" />
              <mxPoint x="719" y="244" />
            </Array>
            <mxPoint as="offset" />
          </mxGeometry>
        </mxCell>
        <mxCell id="EWPbMncWUsnWf-gfcvP8-18" value="1" style="edgeLabel;resizable=0;html=1;align=left;verticalAlign=bottom;" connectable="0" vertex="1" parent="EWPbMncWUsnWf-gfcvP8-17">
          <mxGeometry x="-1" relative="1" as="geometry">
            <mxPoint y="10" as="offset" />
          </mxGeometry>
        </mxCell>
        <mxCell id="EWPbMncWUsnWf-gfcvP8-19" value="has-a" style="edgeLabel;html=1;align=center;verticalAlign=middle;resizable=0;points=[];" vertex="1" connectable="0" parent="EWPbMncWUsnWf-gfcvP8-17">
          <mxGeometry x="0.1365" y="1" relative="1" as="geometry">
            <mxPoint as="offset" />
          </mxGeometry>
        </mxCell>
        <mxCell id="EWPbMncWUsnWf-gfcvP8-20" value="InternalButton" style="swimlane;fontStyle=1;align=center;verticalAlign=top;childLayout=stackLayout;horizontal=1;startSize=26;horizontalStack=0;resizeParent=1;resizeParentMax=0;resizeLast=0;collapsible=1;marginBottom=0;whiteSpace=wrap;html=1;" vertex="1" parent="1">
          <mxGeometry x="390" y="133" width="180" height="86" as="geometry" />
        </mxCell>
        <mxCell id="EWPbMncWUsnWf-gfcvP8-21" value="&lt;span style=&quot;font-weight: 700; text-align: center;&quot;&gt;InternalButtonDispatcher obj;&lt;/span&gt;" style="text;strokeColor=none;fillColor=none;align=left;verticalAlign=top;spacingLeft=4;spacingRight=4;overflow=hidden;rotatable=0;points=[[0,0.5],[1,0.5]];portConstraint=eastwest;whiteSpace=wrap;html=1;" vertex="1" parent="EWPbMncWUsnWf-gfcvP8-20">
          <mxGeometry y="26" width="180" height="26" as="geometry" />
        </mxCell>
        <mxCell id="EWPbMncWUsnWf-gfcvP8-22" value="" style="line;strokeWidth=1;fillColor=none;align=left;verticalAlign=middle;spacingTop=-1;spacingLeft=3;spacingRight=3;rotatable=0;labelPosition=right;points=[];portConstraint=eastwest;strokeColor=inherit;" vertex="1" parent="EWPbMncWUsnWf-gfcvP8-20">
          <mxGeometry y="52" width="180" height="8" as="geometry" />
        </mxCell>
        <mxCell id="EWPbMncWUsnWf-gfcvP8-23" value="pushButton(int floor_id)" style="text;strokeColor=none;fillColor=none;align=left;verticalAlign=top;spacingLeft=4;spacingRight=4;overflow=hidden;rotatable=0;points=[[0,0.5],[1,0.5]];portConstraint=eastwest;whiteSpace=wrap;html=1;" vertex="1" parent="EWPbMncWUsnWf-gfcvP8-20">
          <mxGeometry y="60" width="180" height="26" as="geometry" />
        </mxCell>
        <mxCell id="EWPbMncWUsnWf-gfcvP8-24" value="name" style="endArrow=block;endFill=1;html=1;edgeStyle=orthogonalEdgeStyle;align=left;verticalAlign=top;rounded=0;entryX=0.8;entryY=0.962;entryDx=0;entryDy=0;entryPerimeter=0;exitX=0.063;exitY=0;exitDx=0;exitDy=0;exitPerimeter=0;" edge="1" parent="1" source="EWPbMncWUsnWf-gfcvP8-1" target="EWPbMncWUsnWf-gfcvP8-23">
          <mxGeometry x="0.2188" y="-45" relative="1" as="geometry">
            <mxPoint x="450" y="290" as="sourcePoint" />
            <mxPoint x="610" y="290" as="targetPoint" />
            <mxPoint y="1" as="offset" />
          </mxGeometry>
        </mxCell>
        <mxCell id="EWPbMncWUsnWf-gfcvP8-25" value="1" style="edgeLabel;resizable=0;html=1;align=left;verticalAlign=bottom;" connectable="0" vertex="1" parent="EWPbMncWUsnWf-gfcvP8-24">
          <mxGeometry x="-1" relative="1" as="geometry" />
        </mxCell>
        <mxCell id="EWPbMncWUsnWf-gfcvP8-26" value="has-a" style="edgeLabel;html=1;align=center;verticalAlign=middle;resizable=0;points=[];" vertex="1" connectable="0" parent="EWPbMncWUsnWf-gfcvP8-24">
          <mxGeometry x="-0.0149" y="-2" relative="1" as="geometry">
            <mxPoint as="offset" />
          </mxGeometry>
        </mxCell>
        <mxCell id="EWPbMncWUsnWf-gfcvP8-27" value="ElevatorController" style="swimlane;fontStyle=1;align=center;verticalAlign=top;childLayout=stackLayout;horizontal=1;startSize=26;horizontalStack=0;resizeParent=1;resizeParentMax=0;resizeLast=0;collapsible=1;marginBottom=0;whiteSpace=wrap;html=1;" vertex="1" parent="1">
          <mxGeometry x="370" y="300" width="160" height="120" as="geometry" />
        </mxCell>
        <mxCell id="EWPbMncWUsnWf-gfcvP8-31" value="name" style="endArrow=block;endFill=1;html=1;edgeStyle=orthogonalEdgeStyle;align=left;verticalAlign=top;rounded=0;entryX=0;entryY=0.234;entryDx=0;entryDy=0;entryPerimeter=0;" edge="1" parent="EWPbMncWUsnWf-gfcvP8-27" target="EWPbMncWUsnWf-gfcvP8-2">
          <mxGeometry x="-1" relative="1" as="geometry">
            <mxPoint x="160" y="40" as="sourcePoint" />
            <mxPoint x="250" y="40" as="targetPoint" />
          </mxGeometry>
        </mxCell>
        <mxCell id="EWPbMncWUsnWf-gfcvP8-32" value="1" style="edgeLabel;resizable=0;html=1;align=left;verticalAlign=bottom;" connectable="0" vertex="1" parent="EWPbMncWUsnWf-gfcvP8-31">
          <mxGeometry x="-1" relative="1" as="geometry" />
        </mxCell>
        <mxCell id="EWPbMncWUsnWf-gfcvP8-33" value="has-a" style="edgeLabel;html=1;align=center;verticalAlign=middle;resizable=0;points=[];" vertex="1" connectable="0" parent="EWPbMncWUsnWf-gfcvP8-31">
          <mxGeometry x="-0.0146" y="-3" relative="1" as="geometry">
            <mxPoint y="2" as="offset" />
          </mxGeometry>
        </mxCell>
        <mxCell id="EWPbMncWUsnWf-gfcvP8-28" value="ElevatorCra obj;&lt;div&gt;&lt;br&gt;&lt;/div&gt;" style="text;strokeColor=none;fillColor=none;align=left;verticalAlign=top;spacingLeft=4;spacingRight=4;overflow=hidden;rotatable=0;points=[[0,0.5],[1,0.5]];portConstraint=eastwest;whiteSpace=wrap;html=1;" vertex="1" parent="EWPbMncWUsnWf-gfcvP8-27">
          <mxGeometry y="26" width="160" height="34" as="geometry" />
        </mxCell>
        <mxCell id="EWPbMncWUsnWf-gfcvP8-29" value="" style="line;strokeWidth=1;fillColor=none;align=left;verticalAlign=middle;spacingTop=-1;spacingLeft=3;spacingRight=3;rotatable=0;labelPosition=right;points=[];portConstraint=eastwest;strokeColor=inherit;" vertex="1" parent="EWPbMncWUsnWf-gfcvP8-27">
          <mxGeometry y="60" width="160" height="8" as="geometry" />
        </mxCell>
        <mxCell id="EWPbMncWUsnWf-gfcvP8-30" value="&lt;div&gt;pushNewReq(floor_id, dir);&lt;/div&gt;elevatorControllerAlgo();" style="text;strokeColor=none;fillColor=none;align=left;verticalAlign=top;spacingLeft=4;spacingRight=4;overflow=hidden;rotatable=0;points=[[0,0.5],[1,0.5]];portConstraint=eastwest;whiteSpace=wrap;html=1;" vertex="1" parent="EWPbMncWUsnWf-gfcvP8-27">
          <mxGeometry y="68" width="160" height="52" as="geometry" />
        </mxCell>
        <mxCell id="EWPbMncWUsnWf-gfcvP8-34" value="InternalButtonDispatcher" style="swimlane;fontStyle=1;align=center;verticalAlign=top;childLayout=stackLayout;horizontal=1;startSize=26;horizontalStack=0;resizeParent=1;resizeParentMax=0;resizeLast=0;collapsible=1;marginBottom=0;whiteSpace=wrap;html=1;" vertex="1" parent="1">
          <mxGeometry x="110" y="226" width="170" height="86" as="geometry" />
        </mxCell>
        <mxCell id="EWPbMncWUsnWf-gfcvP8-35" value="List&amp;lt;ElevatorController&amp;gt; list;" style="text;strokeColor=none;fillColor=none;align=left;verticalAlign=top;spacingLeft=4;spacingRight=4;overflow=hidden;rotatable=0;points=[[0,0.5],[1,0.5]];portConstraint=eastwest;whiteSpace=wrap;html=1;" vertex="1" parent="EWPbMncWUsnWf-gfcvP8-34">
          <mxGeometry y="26" width="170" height="26" as="geometry" />
        </mxCell>
        <mxCell id="EWPbMncWUsnWf-gfcvP8-36" value="" style="line;strokeWidth=1;fillColor=none;align=left;verticalAlign=middle;spacingTop=-1;spacingLeft=3;spacingRight=3;rotatable=0;labelPosition=right;points=[];portConstraint=eastwest;strokeColor=inherit;" vertex="1" parent="EWPbMncWUsnWf-gfcvP8-34">
          <mxGeometry y="52" width="170" height="8" as="geometry" />
        </mxCell>
        <mxCell id="EWPbMncWUsnWf-gfcvP8-37" value="submitReq(int&amp;nbsp; elevator_id);" style="text;strokeColor=none;fillColor=none;align=left;verticalAlign=top;spacingLeft=4;spacingRight=4;overflow=hidden;rotatable=0;points=[[0,0.5],[1,0.5]];portConstraint=eastwest;whiteSpace=wrap;html=1;" vertex="1" parent="EWPbMncWUsnWf-gfcvP8-34">
          <mxGeometry y="60" width="170" height="26" as="geometry" />
        </mxCell>
        <mxCell id="EWPbMncWUsnWf-gfcvP8-38" value="name" style="endArrow=block;endFill=1;html=1;edgeStyle=orthogonalEdgeStyle;align=left;verticalAlign=top;rounded=0;entryX=0.553;entryY=-0.012;entryDx=0;entryDy=0;entryPerimeter=0;exitX=-0.006;exitY=0.038;exitDx=0;exitDy=0;exitPerimeter=0;" edge="1" parent="1" source="EWPbMncWUsnWf-gfcvP8-21" target="EWPbMncWUsnWf-gfcvP8-34">
          <mxGeometry x="-0.633" y="31" relative="1" as="geometry">
            <mxPoint x="250" y="150" as="sourcePoint" />
            <mxPoint x="360" y="150" as="targetPoint" />
            <mxPoint as="offset" />
          </mxGeometry>
        </mxCell>
        <mxCell id="EWPbMncWUsnWf-gfcvP8-39" value="1" style="edgeLabel;resizable=0;html=1;align=left;verticalAlign=bottom;" connectable="0" vertex="1" parent="EWPbMncWUsnWf-gfcvP8-38">
          <mxGeometry x="-1" relative="1" as="geometry" />
        </mxCell>
        <mxCell id="EWPbMncWUsnWf-gfcvP8-40" value="has-a" style="edgeLabel;html=1;align=center;verticalAlign=middle;resizable=0;points=[];" vertex="1" connectable="0" parent="EWPbMncWUsnWf-gfcvP8-38">
          <mxGeometry x="-0.2357" y="2" relative="1" as="geometry">
            <mxPoint as="offset" />
          </mxGeometry>
        </mxCell>
        <mxCell id="EWPbMncWUsnWf-gfcvP8-41" value="name" style="endArrow=block;endFill=1;html=1;edgeStyle=orthogonalEdgeStyle;align=left;verticalAlign=top;rounded=0;exitX=0.447;exitY=0.923;exitDx=0;exitDy=0;exitPerimeter=0;entryX=-0.006;entryY=0.765;entryDx=0;entryDy=0;entryPerimeter=0;" edge="1" parent="1" source="EWPbMncWUsnWf-gfcvP8-37" target="EWPbMncWUsnWf-gfcvP8-28">
          <mxGeometry x="-1" relative="1" as="geometry">
            <mxPoint x="190" y="360" as="sourcePoint" />
            <mxPoint x="350" y="360" as="targetPoint" />
            <Array as="points">
              <mxPoint x="186" y="340" />
              <mxPoint x="351" y="340" />
              <mxPoint x="351" y="352" />
            </Array>
          </mxGeometry>
        </mxCell>
        <mxCell id="EWPbMncWUsnWf-gfcvP8-42" value="1" style="edgeLabel;resizable=0;html=1;align=left;verticalAlign=bottom;" connectable="0" vertex="1" parent="EWPbMncWUsnWf-gfcvP8-41">
          <mxGeometry x="-1" relative="1" as="geometry" />
        </mxCell>
        <mxCell id="EWPbMncWUsnWf-gfcvP8-43" value="has-a" style="edgeLabel;html=1;align=center;verticalAlign=middle;resizable=0;points=[];" vertex="1" connectable="0" parent="EWPbMncWUsnWf-gfcvP8-41">
          <mxGeometry x="0.0043" y="-1" relative="1" as="geometry">
            <mxPoint as="offset" />
          </mxGeometry>
        </mxCell>
        <mxCell id="EWPbMncWUsnWf-gfcvP8-44" value="ExternalButtonDispatcher" style="swimlane;fontStyle=1;align=center;verticalAlign=top;childLayout=stackLayout;horizontal=1;startSize=26;horizontalStack=0;resizeParent=1;resizeParentMax=0;resizeLast=0;collapsible=1;marginBottom=0;whiteSpace=wrap;html=1;" vertex="1" parent="1">
          <mxGeometry x="-160" y="226" width="180" height="86" as="geometry" />
        </mxCell>
        <mxCell id="EWPbMncWUsnWf-gfcvP8-45" value="List&amp;lt;ElevatorController&amp;gt; list;" style="text;strokeColor=none;fillColor=none;align=left;verticalAlign=top;spacingLeft=4;spacingRight=4;overflow=hidden;rotatable=0;points=[[0,0.5],[1,0.5]];portConstraint=eastwest;whiteSpace=wrap;html=1;" vertex="1" parent="EWPbMncWUsnWf-gfcvP8-44">
          <mxGeometry y="26" width="180" height="26" as="geometry" />
        </mxCell>
        <mxCell id="EWPbMncWUsnWf-gfcvP8-46" value="" style="line;strokeWidth=1;fillColor=none;align=left;verticalAlign=middle;spacingTop=-1;spacingLeft=3;spacingRight=3;rotatable=0;labelPosition=right;points=[];portConstraint=eastwest;strokeColor=inherit;" vertex="1" parent="EWPbMncWUsnWf-gfcvP8-44">
          <mxGeometry y="52" width="180" height="8" as="geometry" />
        </mxCell>
        <mxCell id="EWPbMncWUsnWf-gfcvP8-47" value="submitReq(floor_id, dir);" style="text;strokeColor=none;fillColor=none;align=left;verticalAlign=top;spacingLeft=4;spacingRight=4;overflow=hidden;rotatable=0;points=[[0,0.5],[1,0.5]];portConstraint=eastwest;whiteSpace=wrap;html=1;" vertex="1" parent="EWPbMncWUsnWf-gfcvP8-44">
          <mxGeometry y="60" width="180" height="26" as="geometry" />
        </mxCell>
        <mxCell id="EWPbMncWUsnWf-gfcvP8-48" value="name" style="endArrow=block;endFill=1;html=1;edgeStyle=orthogonalEdgeStyle;align=left;verticalAlign=top;rounded=0;entryX=0.006;entryY=0.385;entryDx=0;entryDy=0;entryPerimeter=0;exitX=0.878;exitY=1;exitDx=0;exitDy=0;exitPerimeter=0;" edge="1" parent="1" source="EWPbMncWUsnWf-gfcvP8-47" target="EWPbMncWUsnWf-gfcvP8-30">
          <mxGeometry x="-0.9026" y="35" relative="1" as="geometry">
            <mxPoint x="-65" y="315" as="sourcePoint" />
            <mxPoint x="210" y="390" as="targetPoint" />
            <Array as="points">
              <mxPoint x="-2" y="390" />
              <mxPoint x="195" y="390" />
              <mxPoint x="195" y="388" />
            </Array>
            <mxPoint as="offset" />
          </mxGeometry>
        </mxCell>
        <mxCell id="EWPbMncWUsnWf-gfcvP8-49" value="1" style="edgeLabel;resizable=0;html=1;align=left;verticalAlign=bottom;" connectable="0" vertex="1" parent="EWPbMncWUsnWf-gfcvP8-48">
          <mxGeometry x="-1" relative="1" as="geometry" />
        </mxCell>
        <mxCell id="EWPbMncWUsnWf-gfcvP8-51" value="has-a" style="edgeLabel;html=1;align=center;verticalAlign=middle;resizable=0;points=[];" vertex="1" connectable="0" parent="EWPbMncWUsnWf-gfcvP8-48">
          <mxGeometry x="-0.2085" y="1" relative="1" as="geometry">
            <mxPoint as="offset" />
          </mxGeometry>
        </mxCell>
        <mxCell id="EWPbMncWUsnWf-gfcvP8-52" value="ExternalButton" style="swimlane;fontStyle=1;align=center;verticalAlign=top;childLayout=stackLayout;horizontal=1;startSize=26;horizontalStack=0;resizeParent=1;resizeParentMax=0;resizeLast=0;collapsible=1;marginBottom=0;whiteSpace=wrap;html=1;" vertex="1" parent="1">
          <mxGeometry x="-140" y="58" width="180" height="86" as="geometry" />
        </mxCell>
        <mxCell id="EWPbMncWUsnWf-gfcvP8-53" value="&lt;span style=&quot;font-weight: 700; text-align: center;&quot;&gt;ExternalButtonDispatcher obj&lt;/span&gt;" style="text;strokeColor=none;fillColor=none;align=left;verticalAlign=top;spacingLeft=4;spacingRight=4;overflow=hidden;rotatable=0;points=[[0,0.5],[1,0.5]];portConstraint=eastwest;whiteSpace=wrap;html=1;" vertex="1" parent="EWPbMncWUsnWf-gfcvP8-52">
          <mxGeometry y="26" width="180" height="26" as="geometry" />
        </mxCell>
        <mxCell id="EWPbMncWUsnWf-gfcvP8-54" value="" style="line;strokeWidth=1;fillColor=none;align=left;verticalAlign=middle;spacingTop=-1;spacingLeft=3;spacingRight=3;rotatable=0;labelPosition=right;points=[];portConstraint=eastwest;strokeColor=inherit;" vertex="1" parent="EWPbMncWUsnWf-gfcvP8-52">
          <mxGeometry y="52" width="180" height="8" as="geometry" />
        </mxCell>
        <mxCell id="EWPbMncWUsnWf-gfcvP8-55" value="pushButton(floor_id,dir);" style="text;strokeColor=none;fillColor=none;align=left;verticalAlign=top;spacingLeft=4;spacingRight=4;overflow=hidden;rotatable=0;points=[[0,0.5],[1,0.5]];portConstraint=eastwest;whiteSpace=wrap;html=1;" vertex="1" parent="EWPbMncWUsnWf-gfcvP8-52">
          <mxGeometry y="60" width="180" height="26" as="geometry" />
        </mxCell>
        <mxCell id="EWPbMncWUsnWf-gfcvP8-56" value="name" style="endArrow=block;endFill=1;html=1;edgeStyle=orthogonalEdgeStyle;align=left;verticalAlign=top;rounded=0;exitX=0.267;exitY=1;exitDx=0;exitDy=0;exitPerimeter=0;entryX=0.383;entryY=0.012;entryDx=0;entryDy=0;entryPerimeter=0;" edge="1" parent="1" source="EWPbMncWUsnWf-gfcvP8-55" target="EWPbMncWUsnWf-gfcvP8-44">
          <mxGeometry x="-0.1325" y="72" relative="1" as="geometry">
            <mxPoint x="-90" y="180" as="sourcePoint" />
            <mxPoint x="-80" y="220" as="targetPoint" />
            <Array as="points">
              <mxPoint x="-92" y="220" />
            </Array>
            <mxPoint as="offset" />
          </mxGeometry>
        </mxCell>
        <mxCell id="EWPbMncWUsnWf-gfcvP8-57" value="1" style="edgeLabel;resizable=0;html=1;align=left;verticalAlign=bottom;" connectable="0" vertex="1" parent="EWPbMncWUsnWf-gfcvP8-56">
          <mxGeometry x="-1" relative="1" as="geometry" />
        </mxCell>
        <mxCell id="EWPbMncWUsnWf-gfcvP8-58" value="has-a" style="edgeLabel;html=1;align=center;verticalAlign=middle;resizable=0;points=[];" vertex="1" connectable="0" parent="EWPbMncWUsnWf-gfcvP8-56">
          <mxGeometry x="0.1314" relative="1" as="geometry">
            <mxPoint as="offset" />
          </mxGeometry>
        </mxCell>
        <mxCell id="EWPbMncWUsnWf-gfcvP8-59" value="Floor" style="swimlane;fontStyle=1;align=center;verticalAlign=top;childLayout=stackLayout;horizontal=1;startSize=26;horizontalStack=0;resizeParent=1;resizeParentMax=0;resizeLast=0;collapsible=1;marginBottom=0;whiteSpace=wrap;html=1;" vertex="1" parent="1">
          <mxGeometry x="-110" y="-110" width="160" height="88" as="geometry" />
        </mxCell>
        <mxCell id="EWPbMncWUsnWf-gfcvP8-60" value="int floor_id;&lt;div&gt;ExternalButton obj;&lt;/div&gt;" style="text;strokeColor=none;fillColor=none;align=left;verticalAlign=top;spacingLeft=4;spacingRight=4;overflow=hidden;rotatable=0;points=[[0,0.5],[1,0.5]];portConstraint=eastwest;whiteSpace=wrap;html=1;" vertex="1" parent="EWPbMncWUsnWf-gfcvP8-59">
          <mxGeometry y="26" width="160" height="54" as="geometry" />
        </mxCell>
        <mxCell id="EWPbMncWUsnWf-gfcvP8-63" value="name" style="endArrow=block;endFill=1;html=1;edgeStyle=orthogonalEdgeStyle;align=left;verticalAlign=top;rounded=0;entryX=0.406;entryY=-0.023;entryDx=0;entryDy=0;entryPerimeter=0;" edge="1" parent="EWPbMncWUsnWf-gfcvP8-59" target="EWPbMncWUsnWf-gfcvP8-52">
          <mxGeometry x="-1" relative="1" as="geometry">
            <mxPoint x="40" y="80" as="sourcePoint" />
            <mxPoint x="200" y="80" as="targetPoint" />
          </mxGeometry>
        </mxCell>
        <mxCell id="EWPbMncWUsnWf-gfcvP8-64" value="1" style="edgeLabel;resizable=0;html=1;align=left;verticalAlign=bottom;" connectable="0" vertex="1" parent="EWPbMncWUsnWf-gfcvP8-63">
          <mxGeometry x="-1" relative="1" as="geometry" />
        </mxCell>
        <mxCell id="EWPbMncWUsnWf-gfcvP8-65" value="has-a" style="edgeLabel;html=1;align=center;verticalAlign=middle;resizable=0;points=[];" vertex="1" connectable="0" parent="EWPbMncWUsnWf-gfcvP8-63">
          <mxGeometry x="-0.0525" y="-1" relative="1" as="geometry">
            <mxPoint as="offset" />
          </mxGeometry>
        </mxCell>
        <mxCell id="EWPbMncWUsnWf-gfcvP8-61" value="" style="line;strokeWidth=1;fillColor=none;align=left;verticalAlign=middle;spacingTop=-1;spacingLeft=3;spacingRight=3;rotatable=0;labelPosition=right;points=[];portConstraint=eastwest;strokeColor=inherit;" vertex="1" parent="EWPbMncWUsnWf-gfcvP8-59">
          <mxGeometry y="80" width="160" height="8" as="geometry" />
        </mxCell>
        <mxCell id="EWPbMncWUsnWf-gfcvP8-66" value="Building" style="swimlane;fontStyle=1;align=center;verticalAlign=top;childLayout=stackLayout;horizontal=1;startSize=26;horizontalStack=0;resizeParent=1;resizeParentMax=0;resizeLast=0;collapsible=1;marginBottom=0;whiteSpace=wrap;html=1;" vertex="1" parent="1">
          <mxGeometry x="180" y="-112" width="160" height="86" as="geometry" />
        </mxCell>
        <mxCell id="EWPbMncWUsnWf-gfcvP8-67" value="List&amp;lt;Floor&amp;gt; list;" style="text;strokeColor=none;fillColor=none;align=left;verticalAlign=top;spacingLeft=4;spacingRight=4;overflow=hidden;rotatable=0;points=[[0,0.5],[1,0.5]];portConstraint=eastwest;whiteSpace=wrap;html=1;" vertex="1" parent="EWPbMncWUsnWf-gfcvP8-66">
          <mxGeometry y="26" width="160" height="26" as="geometry" />
        </mxCell>
        <mxCell id="EWPbMncWUsnWf-gfcvP8-68" value="" style="line;strokeWidth=1;fillColor=none;align=left;verticalAlign=middle;spacingTop=-1;spacingLeft=3;spacingRight=3;rotatable=0;labelPosition=right;points=[];portConstraint=eastwest;strokeColor=inherit;" vertex="1" parent="EWPbMncWUsnWf-gfcvP8-66">
          <mxGeometry y="52" width="160" height="8" as="geometry" />
        </mxCell>
        <mxCell id="EWPbMncWUsnWf-gfcvP8-69" value="+ method(type): type" style="text;strokeColor=none;fillColor=none;align=left;verticalAlign=top;spacingLeft=4;spacingRight=4;overflow=hidden;rotatable=0;points=[[0,0.5],[1,0.5]];portConstraint=eastwest;whiteSpace=wrap;html=1;" vertex="1" parent="EWPbMncWUsnWf-gfcvP8-66">
          <mxGeometry y="60" width="160" height="26" as="geometry" />
        </mxCell>
        <mxCell id="EWPbMncWUsnWf-gfcvP8-70" value="OddEvenAlgo" style="swimlane;fontStyle=1;align=center;verticalAlign=top;childLayout=stackLayout;horizontal=1;startSize=26;horizontalStack=0;resizeParent=1;resizeParentMax=0;resizeLast=0;collapsible=1;marginBottom=0;whiteSpace=wrap;html=1;" vertex="1" parent="1">
          <mxGeometry x="-320" y="420" width="160" height="86" as="geometry" />
        </mxCell>
        <mxCell id="EWPbMncWUsnWf-gfcvP8-71" value="+ field: type" style="text;strokeColor=none;fillColor=none;align=left;verticalAlign=top;spacingLeft=4;spacingRight=4;overflow=hidden;rotatable=0;points=[[0,0.5],[1,0.5]];portConstraint=eastwest;whiteSpace=wrap;html=1;" vertex="1" parent="EWPbMncWUsnWf-gfcvP8-70">
          <mxGeometry y="26" width="160" height="26" as="geometry" />
        </mxCell>
        <mxCell id="EWPbMncWUsnWf-gfcvP8-72" value="" style="line;strokeWidth=1;fillColor=none;align=left;verticalAlign=middle;spacingTop=-1;spacingLeft=3;spacingRight=3;rotatable=0;labelPosition=right;points=[];portConstraint=eastwest;strokeColor=inherit;" vertex="1" parent="EWPbMncWUsnWf-gfcvP8-70">
          <mxGeometry y="52" width="160" height="8" as="geometry" />
        </mxCell>
        <mxCell id="EWPbMncWUsnWf-gfcvP8-73" value="+ method(type): type" style="text;strokeColor=none;fillColor=none;align=left;verticalAlign=top;spacingLeft=4;spacingRight=4;overflow=hidden;rotatable=0;points=[[0,0.5],[1,0.5]];portConstraint=eastwest;whiteSpace=wrap;html=1;" vertex="1" parent="EWPbMncWUsnWf-gfcvP8-70">
          <mxGeometry y="60" width="160" height="26" as="geometry" />
        </mxCell>
        <mxCell id="EWPbMncWUsnWf-gfcvP8-74" value="FixexFloorAlgo" style="swimlane;fontStyle=1;align=center;verticalAlign=top;childLayout=stackLayout;horizontal=1;startSize=26;horizontalStack=0;resizeParent=1;resizeParentMax=0;resizeLast=0;collapsible=1;marginBottom=0;whiteSpace=wrap;html=1;" vertex="1" parent="1">
          <mxGeometry x="-110" y="420" width="160" height="86" as="geometry" />
        </mxCell>
        <mxCell id="EWPbMncWUsnWf-gfcvP8-75" value="+ field: type" style="text;strokeColor=none;fillColor=none;align=left;verticalAlign=top;spacingLeft=4;spacingRight=4;overflow=hidden;rotatable=0;points=[[0,0.5],[1,0.5]];portConstraint=eastwest;whiteSpace=wrap;html=1;" vertex="1" parent="EWPbMncWUsnWf-gfcvP8-74">
          <mxGeometry y="26" width="160" height="26" as="geometry" />
        </mxCell>
        <mxCell id="EWPbMncWUsnWf-gfcvP8-76" value="" style="line;strokeWidth=1;fillColor=none;align=left;verticalAlign=middle;spacingTop=-1;spacingLeft=3;spacingRight=3;rotatable=0;labelPosition=right;points=[];portConstraint=eastwest;strokeColor=inherit;" vertex="1" parent="EWPbMncWUsnWf-gfcvP8-74">
          <mxGeometry y="52" width="160" height="8" as="geometry" />
        </mxCell>
        <mxCell id="EWPbMncWUsnWf-gfcvP8-77" value="+ method(type): type" style="text;strokeColor=none;fillColor=none;align=left;verticalAlign=top;spacingLeft=4;spacingRight=4;overflow=hidden;rotatable=0;points=[[0,0.5],[1,0.5]];portConstraint=eastwest;whiteSpace=wrap;html=1;" vertex="1" parent="EWPbMncWUsnWf-gfcvP8-74">
          <mxGeometry y="60" width="160" height="26" as="geometry" />
        </mxCell>
        <mxCell id="EWPbMncWUsnWf-gfcvP8-78" value="" style="endArrow=none;html=1;edgeStyle=orthogonalEdgeStyle;rounded=0;exitX=0.117;exitY=1;exitDx=0;exitDy=0;exitPerimeter=0;entryX=0.438;entryY=0;entryDx=0;entryDy=0;entryPerimeter=0;" edge="1" parent="1" source="EWPbMncWUsnWf-gfcvP8-47" target="EWPbMncWUsnWf-gfcvP8-70">
          <mxGeometry relative="1" as="geometry">
            <mxPoint x="-270" y="370" as="sourcePoint" />
            <mxPoint x="-110" y="370" as="targetPoint" />
          </mxGeometry>
        </mxCell>
        <mxCell id="EWPbMncWUsnWf-gfcvP8-79" value="parent" style="edgeLabel;resizable=0;html=1;align=left;verticalAlign=bottom;" connectable="0" vertex="1" parent="EWPbMncWUsnWf-gfcvP8-78">
          <mxGeometry x="-1" relative="1" as="geometry">
            <mxPoint y="18" as="offset" />
          </mxGeometry>
        </mxCell>
        <mxCell id="EWPbMncWUsnWf-gfcvP8-80" value="child" style="edgeLabel;resizable=0;html=1;align=right;verticalAlign=bottom;" connectable="0" vertex="1" parent="EWPbMncWUsnWf-gfcvP8-78">
          <mxGeometry x="1" relative="1" as="geometry" />
        </mxCell>
        <mxCell id="EWPbMncWUsnWf-gfcvP8-81" value="" style="endArrow=none;html=1;edgeStyle=orthogonalEdgeStyle;rounded=0;entryX=0.125;entryY=0;entryDx=0;entryDy=0;entryPerimeter=0;" edge="1" parent="1" target="EWPbMncWUsnWf-gfcvP8-74">
          <mxGeometry relative="1" as="geometry">
            <mxPoint x="-90" y="310" as="sourcePoint" />
            <mxPoint x="50" y="350" as="targetPoint" />
            <Array as="points">
              <mxPoint x="-90" y="310" />
            </Array>
          </mxGeometry>
        </mxCell>
        <mxCell id="EWPbMncWUsnWf-gfcvP8-82" value="parent" style="edgeLabel;resizable=0;html=1;align=left;verticalAlign=bottom;" connectable="0" vertex="1" parent="EWPbMncWUsnWf-gfcvP8-81">
          <mxGeometry x="-1" relative="1" as="geometry">
            <mxPoint y="20" as="offset" />
          </mxGeometry>
        </mxCell>
        <mxCell id="EWPbMncWUsnWf-gfcvP8-83" value="child" style="edgeLabel;resizable=0;html=1;align=right;verticalAlign=bottom;" connectable="0" vertex="1" parent="EWPbMncWUsnWf-gfcvP8-81">
          <mxGeometry x="1" relative="1" as="geometry" />
        </mxCell>
        <mxCell id="EWPbMncWUsnWf-gfcvP8-87" value="name" style="endArrow=block;endFill=1;html=1;edgeStyle=orthogonalEdgeStyle;align=left;verticalAlign=top;rounded=0;entryX=1;entryY=0.25;entryDx=0;entryDy=0;exitX=-0.012;exitY=0.231;exitDx=0;exitDy=0;exitPerimeter=0;" edge="1" parent="1" source="EWPbMncWUsnWf-gfcvP8-67" target="EWPbMncWUsnWf-gfcvP8-59">
          <mxGeometry x="-0.5873" y="10" relative="1" as="geometry">
            <mxPoint x="100" y="-160" as="sourcePoint" />
            <mxPoint x="260" y="-160" as="targetPoint" />
            <mxPoint as="offset" />
          </mxGeometry>
        </mxCell>
        <mxCell id="EWPbMncWUsnWf-gfcvP8-88" value="1" style="edgeLabel;resizable=0;html=1;align=left;verticalAlign=bottom;" connectable="0" vertex="1" parent="EWPbMncWUsnWf-gfcvP8-87">
          <mxGeometry x="-1" relative="1" as="geometry" />
        </mxCell>
        <mxCell id="EWPbMncWUsnWf-gfcvP8-89" value="has-a" style="edgeLabel;html=1;align=center;verticalAlign=middle;resizable=0;points=[];" vertex="1" connectable="0" parent="EWPbMncWUsnWf-gfcvP8-87">
          <mxGeometry x="-0.0141" y="3" relative="1" as="geometry">
            <mxPoint as="offset" />
          </mxGeometry>
        </mxCell>
      </root>
    </mxGraphModel>
  </diagram>
</mxfile>
